<svg width="40" height="40" viewBox="0 0 40 40" fill="none" xmlns="http://www.w3.org/2000/svg">
<circle cx="20" cy="20" r="19.5" fill="white" stroke="white"/>
<path d="M20 29.1118C20.6193 29.1126 21.2235 28.9204 21.7285 28.562C22.2335 28.2035 22.6143 27.6967 22.818 27.1118H17.182C17.3857 27.6967 17.7665 28.2035 18.2715 28.562C18.7765 28.9204 19.3807 29.1126 20 29.1118ZM27 21.6978V17.1118C27 13.8948 24.815 11.1848 21.855 10.3698C21.562 9.63182 20.846 9.11182 20 9.11182C19.154 9.11182 18.438 9.63182 18.145 10.3698C15.185 11.1858 13 13.8948 13 17.1118V21.6978L11.293 23.4048C11.2 23.4975 11.1262 23.6077 11.0759 23.7291C11.0256 23.8504 10.9998 23.9805 11 24.1118V25.1118C11 25.377 11.1054 25.6314 11.2929 25.8189C11.4804 26.0065 11.7348 26.1118 12 26.1118H28C28.2652 26.1118 28.5196 26.0065 28.7071 25.8189C28.8946 25.6314 29 25.377 29 25.1118V24.1118C29.0002 23.9805 28.9744 23.8504 28.9241 23.7291C28.8738 23.6077 28.8 23.4975 28.707 23.4048L27 21.6978Z" fill="#5782F1"/>
</svg>
