<svg width="30" height="30" viewBox="0 0 30 30" fill="none" xmlns="http://www.w3.org/2000/svg">
<path fill-rule="evenodd" clip-rule="evenodd" d="M12.1677 8.38695C12.2909 8.1498 12.5427 8 12.8182 8H17.1818C17.4573 8 17.7091 8.1498 17.8323 8.38695L18.7222 10.1H21.1818C22.186 10.1 23 10.8835 23 11.85V20.25C23 21.2165 22.186 22 21.1818 22H8.81818C7.81403 22 7 21.2165 7 20.25V11.85C7 10.8835 7.81403 10.1 8.81818 10.1H11.2778L12.1677 8.38695ZM12.904 10.1H17.096L16.7323 9.4H13.2677L12.904 10.1ZM8.81818 11.5C8.61735 11.5 8.45455 11.6567 8.45455 11.85V20.25C8.45455 20.4433 8.61735 20.6 8.81818 20.6H21.1818C21.3826 20.6 21.5455 20.4433 21.5455 20.25V11.85C21.5455 11.6567 21.3826 11.5 21.1818 11.5H8.81818ZM11.3636 16.05C11.3636 14.117 12.9917 12.55 15 12.55C17.0083 12.55 18.6364 14.117 18.6364 16.05C18.6364 17.983 17.0083 19.55 15 19.55C12.9917 19.55 11.3636 17.983 11.3636 16.05ZM15 13.95C13.795 13.95 12.8182 14.8902 12.8182 16.05C12.8182 17.2098 13.795 18.15 15 18.15C16.205 18.15 17.1818 17.2098 17.1818 16.05C17.1818 14.8902 16.205 13.95 15 13.95Z" fill="white"/>
</svg>
