<svg width="30" height="30" viewBox="0 0 30 30" fill="none" xmlns="http://www.w3.org/2000/svg">
<path d="M21.2883 12.4617C21.3754 12.5488 21.4446 12.6522 21.4918 12.766C21.539 12.8798 21.5632 13.0018 21.5632 13.125C21.5632 13.2482 21.539 13.3702 21.4918 13.484C21.4446 13.5978 21.3754 13.7012 21.2883 13.7883L17.5383 17.5383C17.4512 17.6255 17.3478 17.6946 17.234 17.7418C17.1202 17.789 16.9982 17.8132 16.875 17.8132C16.7518 17.8132 16.6298 17.789 16.516 17.7418C16.4022 17.6946 16.2988 17.6255 16.2117 17.5383L13.125 14.4504L10.0383 17.5383C9.86237 17.7142 9.62378 17.813 9.375 17.813C9.12622 17.813 8.88763 17.7142 8.71172 17.5383C8.5358 17.3624 8.43698 17.1238 8.43698 16.875C8.43698 16.6262 8.5358 16.3876 8.71172 16.2117L12.4617 12.4617C12.5488 12.3746 12.6522 12.3054 12.766 12.2582C12.8798 12.2111 13.0018 12.1868 13.125 12.1868C13.2482 12.1868 13.3702 12.2111 13.484 12.2582C13.5978 12.3054 13.7012 12.3746 13.7883 12.4617L16.875 15.5496L19.9617 12.4617C20.0488 12.3746 20.1522 12.3054 20.266 12.2582C20.3798 12.2111 20.5018 12.1868 20.625 12.1868C20.7482 12.1868 20.8702 12.2111 20.984 12.2582C21.0978 12.3054 21.2012 12.3746 21.2883 12.4617ZM27.1875 15C27.188 17.1041 26.6436 19.1726 25.6075 21.0039C24.5714 22.8353 23.0788 24.3672 21.275 25.4506C19.4712 26.534 17.4177 27.1319 15.3142 27.1861C13.2108 27.2404 11.1291 26.7491 9.27187 25.7602L5.28164 27.0902C4.95127 27.2004 4.59675 27.2164 4.2578 27.1364C3.91886 27.0564 3.60889 26.8836 3.36264 26.6374C3.11638 26.3911 2.94358 26.0811 2.86359 25.7422C2.7836 25.4033 2.79959 25.0487 2.90977 24.7184L4.23984 20.7281C3.37049 19.0936 2.88492 17.2826 2.82 15.4324C2.75508 13.5822 3.11251 11.7416 3.86516 10.0502C4.61781 8.35875 5.74591 6.86104 7.16381 5.6707C8.58171 4.48036 10.2522 3.62869 12.0484 3.18033C13.8446 2.73197 15.7193 2.6987 17.5303 3.08305C19.3412 3.46741 21.0409 4.25928 22.5001 5.39856C23.9593 6.53785 25.1399 7.9946 25.952 9.65824C26.7642 11.3219 27.1867 13.1487 27.1875 15ZM25.3125 15C25.3121 13.4181 24.9477 11.8575 24.2476 10.439C23.5475 9.02047 22.5305 7.782 21.2752 6.81942C20.0199 5.85684 18.5599 5.19595 17.0083 4.88788C15.4567 4.57981 13.8551 4.63283 12.3272 5.04282C10.7994 5.45281 9.38636 6.20878 8.19744 7.25226C7.00853 8.29574 6.07561 9.59875 5.47085 11.0605C4.8661 12.5222 4.60572 14.1035 4.70988 15.6819C4.81403 17.2604 5.27991 18.7937 6.07148 20.1633C6.13792 20.2783 6.17917 20.4061 6.19251 20.5382C6.20584 20.6703 6.19095 20.8038 6.14883 20.9297L4.6875 25.3125L9.07031 23.85C9.19633 23.8081 9.32983 23.7934 9.46195 23.8069C9.59408 23.8204 9.72182 23.8619 9.83672 23.9285C11.4044 24.8353 13.1833 25.3132 14.9943 25.3142C16.8054 25.3152 18.5848 24.8392 20.1535 23.9342C21.7222 23.0292 23.0249 21.727 23.9305 20.1586C24.8361 18.5903 25.3128 16.8111 25.3125 15Z" fill="currentColor"/>
</svg>
