<svg width="20" height="20" viewBox="0 0 24 24" fill="none" xmlns="http://www.w3.org/2000/svg">
<circle cx="12" cy="12" r="12" fill="#4AEABA"/>
<path d="M18.2792 8.16192C18.4282 8.27483 18.5185 8.43348 18.5302 8.60303C18.542 8.77258 18.4741 8.93915 18.3417 9.06615L10.3133 16.7563C10.2427 16.8239 10.1561 16.8781 10.0591 16.9152C9.96212 16.9523 9.85701 16.9714 9.7507 16.9714C9.64439 16.9714 9.53929 16.9523 9.44231 16.9152C9.34533 16.8781 9.25868 16.8239 9.18806 16.7563L5.17389 12.9112C5.04903 12.7833 4.98744 12.6191 5.00213 12.4533C5.01683 12.2875 5.10665 12.133 5.25264 12.0226C5.39862 11.9121 5.58932 11.8543 5.78447 11.8613C5.97961 11.8683 6.16391 11.9396 6.29843 12.0602L9.75033 15.3663L17.2171 8.21447C17.3499 8.08768 17.5363 8.01093 17.7354 8.00108C17.9345 7.99123 18.1301 8.04908 18.2792 8.16192Z" fill="white"/>
</svg>
