<svg width="160" height="160" viewBox="0 0 160 160" fill="none" xmlns="http://www.w3.org/2000/svg">
<g clip-path="url(#clip0_715_1563)">
<path d="M103.494 149.009H41.4393C25.0226 149.009 13.5467 145.81 7.01148 139.411C0.607611 133.013 -1.05914 123.159 2.01122 109.85L15.8278 49.9589C18.8982 36.6498 25.1115 26.796 34.4676 20.3974C43.9551 13.9988 56.9071 10.7995 73.3238 10.7995H122.574C125.069 10.7995 126.709 11.3753 127.494 12.5271C128.44 13.5509 128.633 15.2785 128.072 17.71L122.713 40.9369C122.152 43.3684 121.148 45.16 119.7 46.3117C118.413 47.3355 116.522 47.8474 114.027 47.8474H73.051C68.9796 47.8474 65.7671 48.6792 63.4133 50.3428C61.089 51.8785 59.5578 54.246 58.8198 57.4453L48.2359 103.323C47.4978 106.523 47.674 108.89 48.7644 110.426C49.9861 111.961 52.1073 112.729 55.128 112.729H74.237L81.1453 82.7838C81.7062 80.3523 82.6301 78.6247 83.9169 77.6009C85.3646 76.4491 87.3362 75.8733 89.8315 75.8733H120.367C122.862 75.8733 124.502 76.4491 125.287 77.6009C126.233 78.6247 126.425 80.3523 125.864 82.7838L112.181 142.099C111.62 144.53 110.615 146.322 109.168 147.474C107.881 148.497 105.99 149.009 103.494 149.009ZM150.036 149.009H130.038C128.784 149.009 127.919 148.752 127.444 148.238C127.049 147.659 126.993 146.758 127.275 145.537L131.793 125.954C132.075 124.732 132.539 123.864 133.185 123.349C133.913 122.77 134.904 122.481 136.158 122.481H156.156C157.41 122.481 158.234 122.77 158.628 123.349C159.104 123.864 159.201 124.732 158.919 125.954L154.401 145.537C154.119 146.758 153.614 147.659 152.887 148.238C152.24 148.752 151.29 149.009 150.036 149.009Z" fill="#5F88F9"/>
</g>
<defs>
<clipPath id="clip0_715_1563">
<rect width="160" height="160" fill="white"/>
</clipPath>
</defs>
</svg>
