<svg width="27" height="27" viewBox="0 0 27 27" fill="none" xmlns="http://www.w3.org/2000/svg">
<path d="M7.59375 14.3438H3.375C3.15122 14.3438 2.93661 14.2549 2.77838 14.0966C2.62014 13.9384 2.53125 13.7238 2.53125 13.5C2.53125 13.2762 2.62014 13.0616 2.77838 12.9034C2.93661 12.7451 3.15122 12.6562 3.375 12.6562H7.14234L8.57883 10.5005C8.65585 10.3847 8.76027 10.2898 8.88282 10.2242C9.00536 10.1585 9.14223 10.1242 9.28125 10.1242C9.42027 10.1242 9.55714 10.1585 9.67968 10.2242C9.80223 10.2898 9.90665 10.3847 9.98367 10.5005L12.6562 14.5083L13.6413 13.0317C13.7184 12.9161 13.8229 12.8214 13.9454 12.7559C14.068 12.6904 14.2048 12.6562 14.3438 12.6562H16.875C17.0988 12.6562 17.3134 12.7451 17.4716 12.9034C17.6299 13.0616 17.7188 13.2762 17.7188 13.5C17.7188 13.7238 17.6299 13.9384 17.4716 14.0966C17.3134 14.2549 17.0988 14.3438 16.875 14.3438H14.7952L13.3587 16.4995C13.2817 16.6153 13.1772 16.7102 13.0547 16.7758C12.9321 16.8415 12.7953 16.8758 12.6562 16.8758C12.5172 16.8758 12.3804 16.8415 12.2578 16.7758C12.1353 16.7102 12.0308 16.6153 11.9538 16.4995L9.28125 12.4896L8.29617 13.9662C8.2193 14.0821 8.11494 14.1773 7.99238 14.2432C7.86983 14.3091 7.73289 14.3436 7.59375 14.3438ZM18.7734 3.375C16.5955 3.375 14.6886 4.31156 13.5 5.89465C12.3114 4.31156 10.4045 3.375 8.22656 3.375C6.4929 3.37695 4.83079 4.06652 3.60491 5.29241C2.37902 6.51829 1.68945 8.1804 1.6875 9.91406C1.6875 9.99316 1.6875 10.0723 1.6875 10.1514C1.69449 10.3751 1.79009 10.587 1.95327 10.7403C2.11645 10.8936 2.33384 10.9757 2.55762 10.9688C2.78139 10.9618 2.99323 10.8662 3.14652 10.703C3.2998 10.5398 3.38199 10.3224 3.375 10.0986C3.375 10.0375 3.375 9.97523 3.375 9.91406C3.37667 8.62786 3.88836 7.39482 4.79784 6.48534C5.70732 5.57586 6.94036 5.06417 8.22656 5.0625C10.2779 5.0625 12.0002 6.15516 12.7195 7.91016C12.7831 8.06491 12.8912 8.19727 13.0302 8.29042C13.1692 8.38357 13.3327 8.43331 13.5 8.43331C13.6673 8.43331 13.8308 8.38357 13.9698 8.29042C14.1088 8.19727 14.2169 8.06491 14.2805 7.91016C14.9998 6.15199 16.7221 5.0625 18.7734 5.0625C20.0596 5.06417 21.2927 5.57586 22.2022 6.48534C23.1116 7.39482 23.6233 8.62786 23.625 9.91406C23.625 15.5682 15.4237 20.6877 13.5 21.8109C12.3578 21.1454 9.00387 19.0687 6.46734 16.3044C6.31601 16.1394 6.10532 16.0412 5.88162 16.0315C5.65792 16.0218 5.43953 16.1014 5.27449 16.2527C5.10946 16.4041 5.0113 16.6148 5.0016 16.8385C4.99191 17.0622 5.07148 17.2806 5.22281 17.4456C8.51027 21.0315 12.9146 23.4236 13.1003 23.5237C13.2231 23.5898 13.3605 23.6244 13.5 23.6244C13.6395 23.6244 13.7769 23.5898 13.8997 23.5237C14.3659 23.2727 25.3125 17.2969 25.3125 9.91406C25.3105 8.1804 24.621 6.51829 23.3951 5.29241C22.1692 4.06652 20.5071 3.37695 18.7734 3.375Z" fill="#949698"/>
</svg>
