<svg width="30" height="30" viewBox="0 0 30 30" fill="none" xmlns="http://www.w3.org/2000/svg">
<path d="M13.6543 25.8799C13.5697 26.2015 13.5062 26.5273 13.4639 26.8574C13.4216 27.1875 13.3919 27.526 13.375 27.873C12.2917 27.7461 11.2591 27.4922 10.2773 27.1113C9.29557 26.7305 8.38574 26.2438 7.54785 25.6514C6.70996 25.0589 5.94824 24.3734 5.2627 23.5947C4.57715 22.8161 3.99316 21.9697 3.51074 21.0557C3.02832 20.1416 2.65592 19.1768 2.39355 18.1611C2.13118 17.1455 2 16.0918 2 15C2 13.8066 2.15234 12.6556 2.45703 11.5469C2.76172 10.4382 3.19759 9.40137 3.76465 8.43652C4.33171 7.47168 5.00879 6.5957 5.7959 5.80859C6.58301 5.02148 7.46322 4.3444 8.43652 3.77734C9.40983 3.21029 10.4424 2.77441 11.5342 2.46973C12.626 2.16504 13.7813 2.00846 15 2C16.1934 2 17.3402 2.15234 18.4404 2.45703C19.5407 2.76172 20.5775 3.20182 21.5508 3.77734C22.5241 4.35286 23.4001 5.02995 24.1787 5.80859C24.9574 6.58724 25.6387 7.46745 26.2227 8.44922C26.8066 9.43099 27.2425 10.4635 27.5303 11.5469C27.818 12.6302 27.9746 13.7812 28 15H27.0986C26.9801 14.8053 26.8574 14.6149 26.7305 14.4287C26.6035 14.2425 26.4554 14.0648 26.2861 13.8955C26.2354 13.1592 26.1042 12.444 25.8926 11.75H10.3408C10.2731 12.2917 10.2223 12.8291 10.1885 13.3623C10.1546 13.8955 10.1335 14.4414 10.125 15C10.125 15.5501 10.1419 16.0918 10.1758 16.625C10.2096 17.1582 10.2646 17.6999 10.3408 18.25H15C15 18.5208 15.0212 18.7917 15.0635 19.0625C15.1058 19.3333 15.1608 19.6042 15.2285 19.875H10.6201C10.7217 20.3574 10.8571 20.8864 11.0264 21.4619C11.1956 22.0374 11.4072 22.6003 11.6611 23.1504C11.915 23.7005 12.207 24.2168 12.5371 24.6992C12.8672 25.1816 13.2396 25.5752 13.6543 25.8799ZM25.2705 10.125C24.9404 9.43945 24.5511 8.79622 24.1025 8.19531C23.654 7.5944 23.1462 7.04427 22.5791 6.54492C22.012 6.04557 21.4111 5.60124 20.7764 5.21191C20.1416 4.82259 19.4561 4.50521 18.7197 4.25977C19.0244 4.68294 19.2952 5.13151 19.5322 5.60547C19.7692 6.07943 19.985 6.56608 20.1797 7.06543C20.3744 7.56478 20.5394 8.07259 20.6748 8.58887C20.8102 9.10514 20.9287 9.61719 21.0303 10.125H25.2705ZM15 3.625C14.5768 3.625 14.1875 3.73926 13.832 3.96777C13.4766 4.19629 13.1465 4.49674 12.8418 4.86914C12.5371 5.24154 12.2663 5.66048 12.0293 6.12598C11.7923 6.59147 11.5765 7.06966 11.3818 7.56055C11.1872 8.05143 11.0306 8.51693 10.9121 8.95703C10.7936 9.39714 10.6963 9.78646 10.6201 10.125H19.3799C19.3122 9.79492 19.2148 9.4056 19.0879 8.95703C18.9609 8.50846 18.8044 8.04297 18.6182 7.56055C18.432 7.07812 18.2204 6.60417 17.9834 6.13867C17.7464 5.67318 17.4756 5.25 17.1709 4.86914C16.8662 4.48828 16.5319 4.18783 16.168 3.96777C15.804 3.74772 15.4147 3.63346 15 3.625ZM11.293 4.24707C10.5736 4.49251 9.88802 4.80566 9.23633 5.18652C8.58464 5.56738 7.97949 6.01172 7.4209 6.51953C6.86231 7.02734 6.35449 7.58171 5.89746 8.18262C5.44043 8.78353 5.05111 9.43099 4.72949 10.125H8.96973C9.06283 9.65951 9.17708 9.16439 9.3125 8.63965C9.44792 8.11491 9.61719 7.59017 9.82031 7.06543C10.0234 6.54069 10.2435 6.03711 10.4805 5.55469C10.7174 5.07227 10.9883 4.63639 11.293 4.24707ZM3.625 15C3.625 16.1257 3.78158 17.209 4.09473 18.25H8.70313C8.63542 17.7083 8.58464 17.1709 8.55078 16.6377C8.51693 16.1045 8.5 15.5586 8.5 15C8.5 14.4499 8.51693 13.9082 8.55078 13.375C8.58464 12.8418 8.63542 12.3001 8.70313 11.75H4.09473C3.78158 12.791 3.625 13.8743 3.625 15ZM4.7041 19.875C5.03418 20.5605 5.4235 21.2038 5.87207 21.8047C6.32064 22.4056 6.82845 22.96 7.39551 23.4678C7.96257 23.9756 8.57194 24.4157 9.22363 24.7881C9.87533 25.1605 10.5609 25.4779 11.2803 25.7402C10.9756 25.3171 10.7048 24.8685 10.4678 24.3945C10.2308 23.9206 10.015 23.4339 9.82031 22.9346C9.62565 22.4352 9.46061 21.9274 9.3252 21.4111C9.18978 20.8949 9.06706 20.3828 8.95703 19.875H4.7041ZM24.3691 22.1729C24.9193 22.4521 25.4186 22.7949 25.8672 23.2012C26.3158 23.6074 26.6966 24.0645 27.0098 24.5723C27.3229 25.0801 27.5684 25.6217 27.7461 26.1973C27.9238 26.7728 28.0085 27.3737 28 28H26.375C26.375 27.3314 26.2481 26.7008 25.9941 26.1084C25.7402 25.516 25.3932 24.9997 24.9531 24.5596C24.513 24.1195 23.9925 23.7682 23.3916 23.5059C22.7907 23.2435 22.1602 23.1165 21.5 23.125C20.8229 23.125 20.1924 23.252 19.6084 23.5059C19.0244 23.7598 18.5081 24.1068 18.0596 24.5469C17.611 24.987 17.2598 25.5075 17.0059 26.1084C16.752 26.7093 16.625 27.3398 16.625 28H15C15 27.3822 15.0846 26.7855 15.2539 26.21C15.4232 25.6344 15.6644 25.0885 15.9775 24.5723C16.2907 24.056 16.6716 23.599 17.1201 23.2012C17.5687 22.8034 18.068 22.4606 18.6182 22.1729C17.9834 21.7158 17.4925 21.1445 17.1455 20.459C16.7985 19.7734 16.625 19.0371 16.625 18.25C16.625 17.5814 16.752 16.9508 17.0059 16.3584C17.2598 15.766 17.6068 15.2497 18.0469 14.8096C18.487 14.3695 19.0033 14.0182 19.5957 13.7559C20.1882 13.4935 20.8229 13.3665 21.5 13.375C22.1686 13.375 22.7992 13.502 23.3916 13.7559C23.9841 14.0098 24.5003 14.3568 24.9404 14.7969C25.3805 15.237 25.7318 15.7575 25.9941 16.3584C26.2565 16.9593 26.3835 17.5898 26.375 18.25C26.375 19.0286 26.2015 19.7607 25.8545 20.4463C25.5075 21.1318 25.0124 21.7074 24.3691 22.1729ZM21.5 21.5C21.9486 21.5 22.3675 21.4154 22.7568 21.2461C23.1462 21.0768 23.4932 20.8441 23.7979 20.5479C24.1025 20.2516 24.3353 19.9089 24.4961 19.5195C24.6569 19.1302 24.7415 18.707 24.75 18.25C24.75 17.8014 24.6654 17.3825 24.4961 16.9932C24.3268 16.6038 24.0941 16.2568 23.7979 15.9521C23.5016 15.6475 23.1589 15.4147 22.7695 15.2539C22.3802 15.0931 21.957 15.0085 21.5 15C21.0514 15 20.6325 15.0846 20.2432 15.2539C19.8538 15.4232 19.5068 15.6559 19.2022 15.9521C18.8975 16.2484 18.6647 16.5911 18.5039 16.9805C18.3431 17.3698 18.2585 17.793 18.25 18.25C18.25 18.6986 18.3346 19.1175 18.5039 19.5068C18.6732 19.8962 18.9059 20.2432 19.2022 20.5479C19.4984 20.8525 19.8411 21.0853 20.2305 21.2461C20.6198 21.4069 21.043 21.4915 21.5 21.5Z" fill="currentColor"/>
</svg>
