<svg width="30" height="30" viewBox="0 0 30 30" fill="none" xmlns="http://www.w3.org/2000/svg">
<path d="M18.0893 18.4241C18.7091 18.7277 19.2696 19.1071 19.7709 19.5625C20.2722 20.0179 20.696 20.5446 21.0424 21.1429H18.8959C18.4038 20.5982 17.8204 20.1786 17.146 19.8839C16.4715 19.5893 15.7561 19.4375 14.9996 19.4286C14.2704 19.4286 13.5914 19.5625 12.9625 19.8304C12.3336 20.0982 11.7777 20.4643 11.2946 20.9286C10.8115 21.3929 10.4333 21.942 10.1599 22.5759C9.88645 23.2098 9.74973 23.875 9.74973 24.5714H7.99979C7.99979 23.9196 8.09093 23.2902 8.27322 22.683C8.4555 22.0759 8.71526 21.5 9.05249 20.9554C9.38972 20.4107 9.80442 19.9286 10.2966 19.5089C10.7888 19.0893 11.3265 18.7277 11.9098 18.4241C11.2263 17.942 10.6976 17.3393 10.3239 16.6161C9.95025 15.8929 9.75885 15.1161 9.74973 14.2857C9.74973 13.8125 9.65859 13.3705 9.4763 12.9598C9.29402 12.5491 9.04337 12.183 8.72437 11.8616C8.40537 11.5402 8.03624 11.2946 7.61699 11.125C7.19773 10.9554 6.74201 10.8661 6.24984 10.8571C5.76678 10.8571 5.31562 10.9464 4.89637 11.125C4.47711 11.3036 4.10342 11.5491 3.77531 11.8616C3.44719 12.1741 3.19655 12.5357 3.02338 12.9464C2.8502 13.3571 2.75906 13.8036 2.74995 14.2857H1C1 13.8214 1.0638 13.3661 1.1914 12.9196C1.319 12.4732 1.49673 12.058 1.72459 11.6741C1.95244 11.2902 2.23955 10.933 2.58589 10.6027C2.93223 10.2723 3.31048 10 3.72062 9.78571C3.41073 9.47321 3.17376 9.11161 3.0097 8.70089C2.84565 8.29018 2.75906 7.86607 2.74995 7.42857C2.74995 6.95536 2.84109 6.51339 3.02338 6.10268C3.20566 5.69196 3.45631 5.32589 3.77531 5.00446C4.09431 4.68304 4.46344 4.4375 4.88269 4.26786C5.30195 4.09821 5.75767 4.00893 6.24984 4C6.7329 4 7.18406 4.08929 7.60331 4.26786C8.02257 4.44643 8.39626 4.69196 8.72437 5.00446C9.05249 5.31696 9.30313 5.67857 9.4763 6.08929C9.64948 6.5 9.74062 6.94643 9.74973 7.42857C9.74973 7.86607 9.6677 8.29018 9.50365 8.70089C9.33959 9.11161 9.09806 9.47321 8.77906 9.78571C9.16186 9.99107 9.50365 10.2366 9.80442 10.5223C10.1052 10.808 10.3786 11.1205 10.6247 11.4598C10.8708 11.1027 11.1533 10.7812 11.4723 10.4955C11.7913 10.2098 12.1377 9.96875 12.5114 9.77232C12.8851 9.57589 13.2815 9.41964 13.7008 9.30357C14.12 9.1875 14.553 9.13393 14.9996 9.14286C15.4371 9.14286 15.8654 9.19643 16.2847 9.30357C16.7039 9.41071 17.1004 9.5625 17.4741 9.75893C17.8478 9.95536 18.1987 10.2009 18.5268 10.4955C18.8549 10.7902 19.1375 11.1116 19.3744 11.4598C19.6114 11.1205 19.8803 10.808 20.1811 10.5223C20.4818 10.2366 20.8282 9.99107 21.2201 9.78571C20.9102 9.47321 20.6732 9.11161 20.5092 8.70089C20.3451 8.29018 20.2585 7.86607 20.2494 7.42857C20.2494 6.95536 20.3406 6.51339 20.5228 6.10268C20.7051 5.69196 20.9558 5.32589 21.2748 5.00446C21.5938 4.68304 21.9629 4.4375 22.3822 4.26786C22.8014 4.09821 23.2571 4.00893 23.7493 4C24.2324 4 24.6835 4.08929 25.1028 4.26786C25.522 4.44643 25.8957 4.69196 26.2238 5.00446C26.552 5.31696 26.8026 5.67857 26.9758 6.08929C27.1489 6.5 27.2401 6.94643 27.2492 7.42857C27.2492 7.86607 27.1672 8.29018 27.0031 8.70089C26.8391 9.11161 26.5975 9.47321 26.2785 9.78571C26.6978 10.0089 27.076 10.2813 27.4133 10.6027C27.7505 10.9241 28.033 11.2768 28.2609 11.6607C28.4887 12.0446 28.671 12.4643 28.8077 12.9196C28.9445 13.375 29.0083 13.8304 28.9991 14.2857H27.2492C27.2492 13.8125 27.1581 13.3705 26.9758 12.9598C26.7935 12.5491 26.5428 12.183 26.2238 11.8616C25.9048 11.5402 25.5357 11.2946 25.1165 11.125C24.6972 10.9554 24.2415 10.8661 23.7493 10.8571C23.2662 10.8571 22.8151 10.9464 22.3958 11.125C21.9766 11.3036 21.6029 11.5491 21.2748 11.8616C20.9467 12.1741 20.696 12.5357 20.5228 12.9464C20.3497 13.3571 20.2585 13.8036 20.2494 14.2857C20.2494 15.1071 20.0626 15.8795 19.6889 16.6027C19.3152 17.3259 18.782 17.933 18.0893 18.4241ZM23.7493 5.71429C23.5032 5.71429 23.2754 5.75893 23.0657 5.84821C22.8561 5.9375 22.6738 6.05804 22.5189 6.20982C22.3639 6.36161 22.2363 6.54464 22.1361 6.75893C22.0358 6.97321 21.9902 7.19643 21.9994 7.42857C21.9994 7.66964 22.0449 7.89286 22.1361 8.09821C22.2272 8.30357 22.3503 8.48214 22.5052 8.63393C22.6601 8.78571 22.847 8.91071 23.0657 9.00893C23.2845 9.10714 23.5123 9.15179 23.7493 9.14286C23.9954 9.14286 24.2232 9.09821 24.4329 9.00893C24.6425 8.91964 24.8248 8.79911 24.9797 8.64732C25.1347 8.49554 25.2623 8.3125 25.3625 8.09821C25.4628 7.88393 25.5084 7.66071 25.4993 7.42857C25.4993 7.1875 25.4537 6.96429 25.3625 6.75893C25.2714 6.55357 25.1484 6.375 24.9934 6.22321C24.8385 6.07143 24.6516 5.94643 24.4329 5.84821C24.2141 5.75 23.9863 5.70536 23.7493 5.71429ZM6.24984 9.14286C6.49593 9.14286 6.72378 9.09821 6.93341 9.00893C7.14304 8.91964 7.32533 8.79911 7.48027 8.64732C7.63521 8.49554 7.76281 8.3125 7.86307 8.09821C7.96333 7.88393 8.0089 7.66071 7.99979 7.42857C7.99979 7.1875 7.95421 6.96429 7.86307 6.75893C7.77193 6.55357 7.64889 6.375 7.49394 6.22321C7.339 6.07143 7.15216 5.94643 6.93341 5.84821C6.71467 5.75 6.48681 5.70536 6.24984 5.71429C6.00375 5.71429 5.7759 5.75893 5.56627 5.84821C5.35664 5.9375 5.17435 6.05804 5.01941 6.20982C4.86447 6.36161 4.73687 6.54464 4.63661 6.75893C4.53635 6.97321 4.49078 7.19643 4.49989 7.42857C4.49989 7.66964 4.54546 7.89286 4.63661 8.09821C4.72775 8.30357 4.85079 8.48214 5.00574 8.63393C5.16068 8.78571 5.34752 8.91071 5.56627 9.00893C5.78501 9.10714 6.01287 9.15179 6.24984 9.14286ZM14.9996 17.7143C15.4826 17.7143 15.9338 17.625 16.353 17.4464C16.7723 17.2679 17.146 17.0223 17.4741 16.7098C17.8022 16.3973 18.0529 16.0357 18.226 15.625C18.3992 15.2143 18.4904 14.7679 18.4995 14.2857C18.4995 13.8125 18.4083 13.3705 18.226 12.9598C18.0438 12.5491 17.7931 12.183 17.4741 11.8616C17.1551 11.5402 16.786 11.2946 16.3667 11.125C15.9475 10.9554 15.4917 10.8661 14.9996 10.8571C14.5165 10.8571 14.0654 10.9464 13.6461 11.125C13.2268 11.3036 12.8532 11.5491 12.525 11.8616C12.1969 12.1741 11.9463 12.5357 11.7731 12.9464C11.5999 13.3571 11.5088 13.8036 11.4997 14.2857C11.4997 14.7589 11.5908 15.2009 11.7731 15.6116C11.9554 16.0223 12.206 16.3884 12.525 16.7098C12.844 17.0312 13.2132 17.2768 13.6324 17.4464C14.0517 17.6161 14.5074 17.7054 14.9996 17.7143ZM25.4993 22.8571H28.9991V24.5714H25.4993V28H23.7493V24.5714H20.2494V22.8571H23.7493V19.4286H25.4993V22.8571Z" fill="currentColor"/>
</svg>
